<svg data-v-0dd9719b="" version="1.0" xmlns="http://www.w3.org/2000/svg" xmlns:xlink="http://www.w3.org/1999/xlink" width="100%" height="100%" viewBox="0 0 340.000000 250.000000" preserveAspectRatio="xMidYMid meet" color-interpolation-filters="sRGB" style="margin: auto;"> <rect data-v-0dd9719b="" x="0" y="0" width="100%" height="100%" fill="#fff" fill-opacity="1" class="background"></rect> <rect data-v-0dd9719b="" x="0" y="0" width="100%" height="100%" fill="url(#watermark)" fill-opacity="1" class="watermarklayer"></rect> <g data-v-0dd9719b="" fill="#333" class="icon-text-wrapper icon-svg-group iconsvg" transform="translate(51,95.01109504699707)"><g class="iconsvg-imagesvg" transform="translate(0,0)"><g><rect fill="#333" fill-opacity="0" stroke-width="2" x="0" y="0" width="60" height="59.977808210961946" class="image-rect"></rect> <svg x="0" y="0" width="60" height="59.977808210961946" filtersec="colorsb6036460922" class="image-svg-svg primary" style="overflow: visible;"><svg xmlns="http://www.w3.org/2000/svg" viewBox="0.0020095109939575195 0.0020557641983032227 82.08099365234375 82.05094909667969"><path d="M48.6 57.41l-7.26-6.61c-3.94 4-7.83 8-11.77 12-2.48 2.55-5 5.16-7.58 7.71 9.49 8.91 6.75 10 15.6.76L40.77 74l-6.24 6.43c-2.42 2.73-7 1.4-7.7.44l-9.29-8.72L16 70.72l1.53-1.53c7.57-7.7 14.76-15 22.27-22.72L41.15 45l1.53 1.4 8.78 8-2.86 3zm-14.19 2.81C38 63.59 41.73 67 45.35 70.4c10.12 9.36 7.07 9.42 16.74-.7l-7.7-7 2.74-3.18L66.48 68l1.6 1.47-1.47 1.63-7.38 7.76c-4.33 4.91-8.59 2.17-10 1-5.92-5.47-11.72-10.88-17.63-16.3l2.8-3.3z" fill="#ff5000"></path><path d="M57.45 33.61l-6.62 7.26c4 3.94 8 7.82 12 11.77 2.54 2.55 5.15 5 7.7 7.58 9-9.49 10-6.69.76-15.6l2.74-3.18 6.43 6.17c2.73 2.42 1.4 7 .44 7.7l-8.84 9.36-1.44 1.53-1.53-1.53c-7.7-7.57-15-14.7-22.72-22.28L45 41l1.34-1.52 7.95-8.79 3.19 2.93zm2.73 14.13c3.38-3.69 6.81-7.32 10.19-11 9.35-10.12 9.42-7.06-.7-16.74l-7 7.7-3.19-2.7L68 15.6l1.48-1.6L71 15.47l7.77 7.38c4.9 4.33 2.16 8.6.89 9.93L63.37 50.41l-3.19-2.67z" fill="#519f54"></path><path d="M33.58 24.76l7.25 6.62c4-4.07 7.9-8 11.78-12 2.55-2.54 5.09-5.15 7.57-7.7-9.42-9-6.68-10-15.59-.83l-3.18-2.76 6.23-6.43c2.42-2.8 6.94-1.4 7.71-.51L64.7 10l1.53 1.46L64.7 13c-7.57 7.7-14.76 15-22.27 22.72L41 37.17l-1.47-1.4-8.85-8 2.87-3.06zM47.77 22l-11-10.18c-10.12-9.36-7.12-9.42-16.74.7l7.71 7L25 22.7l-9.36-8.53-1.54-1.5 1.47-1.53L23 3.38c4.33-4.9 8.59-2.17 9.93-1 5.87 5.52 11.66 10.93 17.58 16.4L47.77 22z" fill="#005984"></path><path d="M24.73 48.57l6.62-7.26c-4-3.94-8-7.83-12-11.77-2.55-2.55-5.15-5-7.7-7.58-9 9.49-10 6.75-.76 15.6l-2.84 3.18-6.42-6.24c-2.74-2.42-1.4-7-.45-7.7L10 17.44l1.46-1.52L13 17.44C20.72 25 28 32.15 35.74 39.72l1.47 1.4-1.34 1.46-8 8.85-3.12-2.86zm-2.8-14.13c-3.37 3.63-6.75 7.32-10.18 11-9.36 10.12-9.36 7.06.76 16.67l7-7.7 3.18 2.74-8.52 9.42-1.47 1.54-1.59-1.47-7.77-7.38c-4.83-4.39-2.1-8.66-.89-10 5.48-5.92 10.89-11.71 16.36-17.63l3.12 2.8z" fill="#009796"></path></svg></svg> <!----></g></g> <g transform="translate(67,2.262655258178711)"><g data-gra="path-name" fill-rule="" class="tp-name iconsvg-namesvg" transform="translate(0,0)"><g transform="scale(1)"><g><path d="M4.5-25.2L4.5-28.8 9-28.8 20.27-28.8 20.27-33.3 4.5-33.3 4.5-36.9 20.27-36.9 20.27-40.5 24.77-40.5 24.77-36.9 40.5-36.9 40.5-33.3 24.77-33.3 24.77-28.8 40.5-28.8 40.5-26.57 40.5-25.2 40.5-5.17Q40.5-4.42 40.36-3.58 40.23-2.74 39.89-1.78 39.56-0.82 39.09 0L39.09 0 34.47 0Q36-2.27 36-5.17L36-5.17 36-25.2 9-25.2 9 0 4.5 0 4.5-25.2ZM16.43-22.93L18.55-19.37 18.51-19.37 20.23-19.37 24.73-19.37 26.45-19.37 28.53-22.93 33.73-22.93 31.66-19.37 33.73-19.37 33.73-15.77 24.73-15.77 24.73-12.17 33.73-12.17 33.73-8.57 24.73-8.57 24.73 0 20.23 0 20.23-8.57 11.23-8.57 11.23-12.17 20.23-12.17 20.23-15.77 11.23-15.77 11.23-19.37 13.34-19.37 11.23-22.93 16.43-22.93ZM85.5-22.5L69.77-22.5 69.77-5.17Q69.77-2.31 68.32 0L68.32 0 63.74 0Q65.27-2.27 65.27-5.17L65.27-5.17 65.27-22.5 49.5-22.5 49.5-26.1 85.5-26.1 85.5-22.5ZM49.5-29.7L49.5-33.3 49.5-36.9 65.93-36.9 63.86-40.5 69.07-40.5 71.14-36.9 85.5-36.9 85.5-33.3 85.5-29.7 81-29.7 81-33.3 54-33.3 54-29.7 49.5-29.7ZM94.5-40.46L130.5-40.46 130.54-40.46 130.54-36.86 120.91-36.86 120.91-33.26 124.71-33.26 129.21-33.26 129.21-29.66 129.21-3.6 129.21 0 127.49 0 109.49 0 101.27 0Q99.04 0 97.45-1.58 95.87-3.17 95.87-5.4L95.87-5.4 95.87-29.66 95.87-33.26 100.33-33.26 104.13-33.26 104.13-36.86 94.5-36.86 94.5-40.46ZM109.49-3.6L124.67-3.6 124.71-3.6 124.71-7.2 100.41-7.2 100.41-3.6 109.49-3.6ZM100.33-10.8L124.67-10.8 124.67-29.66 120.87-29.66 120.87-18.2Q120.87-15.34 122.4-13.03L122.4-13.03 117.82-13.03Q116.37-15.3 116.37-18.2L116.37-18.2 116.37-29.66 108.63-29.66 108.63-18.2Q108.63-15.42 107.18-13.03L107.18-13.03 102.6-13.03Q104.13-15.34 104.13-18.2L104.13-18.2 104.13-29.66 100.33-29.66 100.33-10.8ZM108.63-33.26L116.37-33.26 116.37-36.86 108.63-36.86 108.63-33.26ZM156.72-38.27L156.83-38.27 161.88-38.27 162.55-40.5 167.13-40.5 166.46-38.27 173.97-38.27 173.97-35.22 173.97-34.67 173.97-26.1Q173.97-23.24 175.5-20.93L175.5-20.93 170.92-20.93Q169.47-23.32 169.47-26.1L169.47-26.1 169.47-34.67 165.37-34.67 164-29.93 167.17-29.47 167.17-25.87 162.94-26.45 161.33-20.93 156.72-20.93 158.52-27.08 156.72-27.35 156.72-30.95 159.53-30.56 160.75-34.67 156.72-34.67 156.72-38.27ZM175.5-15.97L159.73-14.99 159.73-13.07 175.5-13.07 175.5-9.47 159.73-9.47 159.73-8.1 175.5-8.1 175.5-4.5 159.69-4.5Q159.61-3.4 159.28-2.21 158.95-1.02 158.32 0L158.32 0 153.7 0Q155.03-2 155.19-4.5L155.19-4.5 139.5-4.5 139.5-8.1 155.27-8.1 155.27-9.47 139.5-9.47 139.5-13.07 155.27-13.07 155.27-14.71 139.5-13.73 139.5-17.33 175.5-19.57 175.5-15.97ZM149.75-40.46L149.75-40.5 149.75-38.27 155.47-38.27 155.47-34.67 149.75-34.67 149.75-30.09 155.47-30.91 155.47-27.31 149.75-26.49 149.75-26.06Q149.75-23.17 148.3-20.9L148.3-20.9 143.73-20.9Q145.17-23.05 145.25-25.83L145.25-25.83 139.54-25 139.54-28.6 145.25-29.43 145.25-34.59 139.54-34.59 139.54-38.19 145.25-38.19 145.25-40.46 149.75-40.46Z" transform="translate(-4.5, 40.5)"></path></g> <!----> <!----> <!----> <!----> <!----> <!----> <!----></g></g> <g data-gra="path-slogan" fill-rule="" class="tp-slogan iconsvg-slogansvg" fill="#333" transform="translate(34.685001373291016,46.5)"><!----> <!----> <g transform="scale(1, 1)"><g transform="scale(1)"><path d="M2.30-8.58L6.61-1.64L6.61-8.58L7.73-8.58L7.73 0L6.42 0L2.06-6.94L2.02-6.94L2.02 0L0.89 0L0.89-8.58L2.30-8.58ZM15.19 0L14.34-2.48L10.88-2.48L9.98 0L8.81 0L12.05-8.58L13.36-8.58L16.45 0L15.19 0ZM12.61-7.31L11.25-3.52L13.92-3.52L12.66-7.31L12.61-7.31ZM18.89-8.58L23.20-1.64L23.20-8.58L24.33-8.58L24.33 0L23.02 0L18.66-6.94L18.61-6.94L18.61 0L17.48 0L17.48-8.58L18.89-8.58ZM27.52-8.58L31.83-1.64L31.83-8.58L32.95-8.58L32.95 0L31.64 0L27.28-6.94L27.23-6.94L27.23 0L26.11 0L26.11-8.58L27.52-8.58ZM34.92-8.58L36.09-8.58L36.09 0L34.92 0L34.92-8.58ZM39.47-8.58L43.78-1.64L43.78-8.58L44.91-8.58L44.91 0L43.59 0L39.23-6.94L39.19-6.94L39.19 0L38.06 0L38.06-8.58L39.47-8.58ZM53.11-3.61L50.48-3.61L50.48-4.59L54.23-4.59L54.23 0L53.48 0L53.20-1.08Q52.22 0.09 50.39 0.14L50.39 0.14Q48.66 0.14 47.72-0.75L47.72-0.75Q46.31-2.06 46.36-4.36L46.36-4.36Q46.69-8.63 50.44-8.81L50.44-8.81Q53.63-8.63 54.09-6L54.09-6L52.97-6Q52.50-7.78 50.39-7.83L50.39-7.83Q47.72-7.64 47.58-4.31L47.58-4.31Q47.58-0.75 50.44-0.75L50.44-0.75Q51.47-0.75 52.22-1.31L52.22-1.31Q53.16-2.06 53.11-3.61L53.11-3.61ZM66.28-8.58L63.05-3.47L63.05 0L61.88 0L61.88-3.47L58.64-8.58L60-8.58L62.44-4.45L64.92-8.58L66.28-8.58ZM74.11-4.27L74.11-4.27Q73.92-7.64 71.11-7.83L71.11-7.83Q68.25-7.69 68.11-4.27L68.11-4.27Q68.25-0.94 71.11-0.80L71.11-0.80Q73.92-0.98 74.11-4.27ZM75.28-4.27L75.28-4.27Q75 0 71.11 0.14L71.11 0.14Q67.17 0 66.89-4.27L66.89-4.27Q67.13-8.72 71.11-8.81L71.11-8.81Q75-8.67 75.28-4.27ZM82.31-3.19L82.31-8.58L83.48-8.58L83.48-3.05Q83.34 0.05 79.97 0.14L79.97 0.14Q76.83 0.05 76.69-2.86L76.69-2.86L76.69-8.58L77.86-8.58L77.86-3.19Q77.91-0.84 80.02-0.80L80.02-0.80Q82.31-0.84 82.31-3.19L82.31-3.19ZM86.11-1.03L91.41-1.03L91.41 0L84.66 0L84.66-0.94L89.91-7.59L85.03-7.59L85.03-8.58L91.41-8.58L91.41-7.59L86.11-1.03ZM93.70-5.06L98.20-5.06L98.20-8.58L99.38-8.58L99.38 0L98.20 0L98.20-3.98L93.70-3.98L93.70 0L92.53 0L92.53-8.58L93.70-8.58L93.70-5.06ZM101.34-8.58L102.52-8.58L102.52 0L101.34 0L101.34-8.58Z" transform="translate(-0.890625, 8.8125)"></path></g></g></g></g></g><defs v-gra="od"></defs></svg>